<svg width="1687" height="339" viewBox="0 0 1687 339" fill="none" xmlns="http://www.w3.org/2000/svg">
<mask id="mask0_726_64" style="mask-type:alpha" maskUnits="userSpaceOnUse" x="0" y="4" width="332" height="332">
<path d="M0 4H165.617C257.085 4 331.234 78.1492 331.234 169.617C331.234 261.085 257.085 335.234 165.617 335.234H0V4Z" fill="black"/>
</mask>
<g mask="url(#mask0_726_64)">
<path d="M0 4H165.617C257.085 4 331.234 78.1492 331.234 169.617C331.234 261.085 257.085 335.234 165.617 335.234H0V4Z" fill="#004686"/>
<rect x="-88.4105" y="19.1562" width="612.323" height="147.205" transform="rotate(48.1135 -88.4105 19.1562)" fill="#1B1B1B"/>
<rect x="21.1791" y="-79.1265" width="612.323" height="147.205" transform="rotate(48.1135 21.1791 -79.1265)" fill="#363636"/>
<rect x="130.769" y="-177.409" width="612.323" height="147.205" transform="rotate(48.1135 130.769 -177.409)" fill="#4E4E4E"/>
<path d="M160.153 239.299C115.842 299.143 157.251 340.974 169.906 357.16L325.361 288.251C215.704 237.985 240.368 203.028 252.255 155.734C257.349 135.472 251.406 113.224 234.788 100.561C211.747 83.0047 190.79 88.1812 175.811 97.4305C158.252 108.273 147.33 130.768 126.788 132.746C119.449 133.454 112.036 133.24 106.789 132.359C92.6979 129.993 87.0676 129.705 81.4889 137.531C80.919 138.331 80.4553 139.238 80.4502 140.219C80.3921 151.373 112.266 170.169 144.758 173.728C177.677 177.334 180.168 195.597 175.318 213.036C172.588 222.852 166.216 231.111 160.153 239.299Z" fill="white"/>
<ellipse cx="177.363" cy="139.469" rx="9.00518" ry="8.61365" fill="black"/>
</g>
<path d="M1496.2 333.885V203.74L1509.83 241.327L1367 5H1432.31L1546.95 195.283H1510.3L1625.88 5H1686.02L1543.19 241.327L1557.28 203.74V333.885H1496.2Z" fill="white"/>
<path d="M1087.5 256.362L1084.21 184.007L1256.64 5H1325.24L1181.94 157.227L1148.11 194.344L1087.5 256.362ZM1033 333.885V5H1094.08V333.885H1033ZM1262.28 333.885L1136.36 184.007L1176.77 139.373L1333.69 333.885H1262.28Z" fill="white"/>
<path d="M869.718 338.281C844.661 338.281 821.325 334.21 799.713 326.066C778.414 317.609 759.777 305.863 743.803 290.828C728.141 275.48 715.926 257.47 707.155 236.797C698.385 216.124 694 193.572 694 169.141C694 144.709 698.385 122.157 707.155 101.484C715.926 80.8117 728.298 62.958 744.272 47.9232C760.247 32.5753 778.884 20.8294 800.183 12.6856C821.482 4.22852 844.817 0 870.188 0C897.125 0 921.714 4.69837 943.952 14.0951C966.191 23.1786 984.985 36.8038 1000.33 54.9707L960.866 92.0877C948.964 79.2456 935.652 69.6922 920.93 63.4278C906.209 56.8501 890.235 53.5612 873.007 53.5612C855.78 53.5612 839.962 56.3803 825.554 62.0183C811.459 67.6563 799.087 75.6435 788.437 85.9799C778.101 96.3162 769.957 108.532 764.005 122.627C758.367 136.722 755.548 152.227 755.548 169.141C755.548 186.055 758.367 201.559 764.005 215.654C769.957 229.749 778.101 241.965 788.437 252.302C799.087 262.638 811.459 270.625 825.554 276.263C839.962 281.901 855.78 284.72 873.007 284.72C890.235 284.72 906.209 281.588 920.93 275.324C935.652 268.746 948.964 258.879 960.866 245.724L1000.33 283.311C984.985 301.164 966.191 314.79 943.952 324.186C921.714 333.583 896.969 338.281 869.718 338.281Z" fill="white"/>
<path d="M517.239 336.583C472.135 336.583 436.741 323.898 411.057 298.526C385.686 273.155 373 236.508 373 188.585V3H434.079V186.236C434.079 220.064 441.283 244.652 455.691 260C470.413 275.348 491.085 283.022 517.709 283.022C544.333 283.022 564.849 275.348 579.258 260C593.666 244.652 600.87 220.064 600.87 186.236V3H661.009V188.585C661.009 236.508 648.167 273.155 622.483 298.526C597.111 323.898 562.03 336.583 517.239 336.583Z" fill="white"/>
</svg>
