<svg width="188" height="45" viewBox="0 0 188 45" fill="none" xmlns="http://www.w3.org/2000/svg">
<mask id="mask0_731_291" style="mask-type:alpha" maskUnits="userSpaceOnUse" x="0" y="0" width="45" height="45">
<path d="M0 0H22.5C34.9264 0 45 10.0736 45 22.5C45 34.9264 34.9264 45 22.5 45H0V0Z" fill="black"/>
</mask>
<g mask="url(#mask0_731_291)">
<path d="M0 0H22.5C34.9264 0 45 10.0736 45 22.5C45 34.9264 34.9264 45 22.5 45H0V0Z" fill="#004686"/>
<rect x="-12.0107" y="2.05933" width="83.1876" height="19.9986" transform="rotate(48.1135 -12.0107 2.05933)" fill="#FF5C00"/>
<rect x="2.87744" y="-11.293" width="83.1876" height="19.9986" transform="rotate(48.1135 2.87744 -11.293)" fill="#FF7A00"/>
<rect x="17.7656" y="-24.6453" width="83.1876" height="19.9986" transform="rotate(48.1135 17.7656 -24.6453)" fill="#FFA800"/>
<path d="M19.337 39.2099C18.5699 43.7195 20.5749 47.0124 21.7382 48.5001L45.2022 38.6171C32.7031 32.8876 33.0495 28.6221 34.4389 23.6025C35.7171 18.9842 34.3736 13.5795 29.8615 11.9659C28.84 11.6006 27.9214 11.4883 27.1021 11.549C22.4776 11.8915 20.0812 18.2061 15.508 17.4384C14.3508 17.2441 13.6136 17.1529 13.0441 17.3461C12.1144 17.6613 11.8369 18.8992 12.5045 19.619C13.8233 21.041 17.2192 22.681 20.6663 23.0586C27.3733 23.7932 20.4685 32.5583 19.337 39.2099Z" fill="white"/>
<ellipse cx="24.096" cy="18.4043" rx="1.2234" ry="1.17021" fill="#434343"/>
</g>
<path d="M167.969 39.5449V26.0796L169.339 29.9685L154.979 5.51709H161.545L173.07 25.2046H169.386L181.005 5.51709H187.051L172.692 29.9685L174.109 26.0796V39.5449H167.969Z" fill="white"/>
<path d="M125.229 31.524L124.898 24.0379L142.233 5.51709H149.129L134.723 21.2671L131.322 25.1074L125.229 31.524ZM119.75 39.5449V5.51709H125.89V39.5449H119.75ZM142.8 39.5449L130.141 24.0379L134.203 19.4199L149.98 39.5449H142.8Z" fill="white"/>
<path d="M101.619 40C99.0999 40 96.7539 39.5787 94.5812 38.7361C92.4399 37.8611 90.5663 36.6458 88.9604 35.0903C87.3859 33.5023 86.1578 31.6389 85.2762 29.5C84.3945 27.3611 83.9536 25.0278 83.9536 22.5C83.9536 19.9722 84.3945 17.6389 85.2762 15.5C86.1578 13.3611 87.4017 11.5139 89.0076 9.95833C90.6135 8.37037 92.4872 7.15509 94.6284 6.3125C96.7697 5.4375 99.1156 5 101.666 5C104.374 5 106.846 5.48611 109.082 6.45834C111.318 7.39815 113.207 8.80787 114.75 10.6875L110.782 14.5278C109.586 13.1991 108.247 12.2106 106.767 11.5625C105.287 10.8819 103.682 10.5417 101.95 10.5417C100.218 10.5417 98.6275 10.8333 97.179 11.4167C95.762 12 94.5182 12.8264 93.4476 13.8958C92.4084 14.9653 91.5897 16.2292 90.9914 17.6875C90.4246 19.1458 90.1412 20.75 90.1412 22.5C90.1412 24.25 90.4246 25.8542 90.9914 27.3125C91.5897 28.7708 92.4084 30.0347 93.4476 31.1042C94.5182 32.1736 95.762 33 97.179 33.5833C98.6275 34.1667 100.218 34.4583 101.95 34.4583C103.682 34.4583 105.287 34.1343 106.767 33.4861C108.247 32.8056 109.586 31.7847 110.782 30.4236L114.75 34.3125C113.207 36.1597 111.318 37.5694 109.082 38.5417C106.846 39.5139 104.359 40 101.619 40Z" fill="white"/>
<path d="M64.5002 39.8244C59.9658 39.8244 56.4075 38.5119 53.8254 35.8869C51.2748 33.2619 49.9995 29.4703 49.9995 24.5119V5.31055H56.1399V24.2689C56.1399 27.7689 56.8641 30.3129 58.3126 31.9008C59.7926 33.4888 61.8709 34.2828 64.5475 34.2828C67.224 34.2828 69.2866 33.4888 70.7351 31.9008C72.1836 30.3129 72.9078 27.7689 72.9078 24.2689V5.31055H78.9537V24.5119C78.9537 29.4703 77.6627 33.2619 75.0806 35.8869C72.5299 38.5119 69.0032 39.8244 64.5002 39.8244Z" fill="white"/>
</svg>
